<?xml version="1.0" encoding="UTF-8" standalone="no"?>
<svg width="396px" height="90px" viewBox="0 0 396 90" version="1.1" xmlns="http://www.w3.org/2000/svg" xmlns:xlink="http://www.w3.org/1999/xlink">
    <!-- Generator: Sketch 40 (33762) - http://www.bohemiancoding.com/sketch -->
    <title>Logo</title>
    <desc>Created with Sketch.</desc>
    <defs></defs>
    <g id="Page-1" stroke="none" stroke-width="1" fill="none" fill-rule="evenodd">
        <g id="Pin" transform="translate(-522.000000, -40.000000)" fill="#25DDF5">
            <g id="bg">
                <path d="M775.965939,85.0503582 L771.375519,81.0121763 C762.921189,73.5976763 754.46686,66.1791158 746.012531,58.7564947 C743.782485,56.7211473 742.485809,53.8588732 742.425955,50.8395127 C742.366101,47.8201523 743.548322,44.9086946 745.69595,42.7864901 C749.117457,39.4609285 753.933137,39.3573853 757.622521,42.5794038 C765.212341,49.2102245 772.794044,55.8511964 780.367629,62.5023196 L790.644327,71.4922994 C790.772177,71.6019333 790.906115,71.6993856 791.08267,71.8394734 C791.874121,71.1512161 792.665573,70.4690496 793.444849,69.7807924 L824.195797,42.70731 C826.789324,40.4232705 829.742048,39.5827439 833.041794,40.7948076 C834.219665,41.2518029 835.306272,41.9160181 836.250218,42.7560362 C847.078902,52.1926726 857.885264,61.6557023 868.669303,71.1451253 L869.497283,71.8577457 C870.440938,71.0354914 871.372415,70.2254187 872.297805,69.4214368 C882.367508,60.5593633 892.498092,51.7581975 902.482561,42.8108532 C907.213008,38.5473126 913.958613,39.7167409 916.911337,45.9293285 C918.980412,50.426212 917.857057,55.7484077 914.147344,59.0244887 C904.351605,67.4967528 894.665452,76.0786508 884.924506,84.6057319 C884.778392,84.7336381 884.644454,84.8676351 884.449635,85.0503582 C884.65663,85.2452629 884.839273,85.4279861 885.058444,85.5985277 C894.86433,94.2068191 904.670215,102.81511 914.476101,111.423402 C919.38919,115.74785 919.115226,124.067845 913.964701,128.093845 C910.684545,130.646768 906.055496,130.51394 902.926992,127.777125 C898.3731,123.812032 893.867912,119.792123 889.344461,115.796576 L869.862569,98.584054 L869.527724,98.3099693 L865.211267,102.110611 C855.579907,110.588966 845.918106,119.024685 836.341539,127.563948 C832.847481,130.593046 827.659415,130.593046 824.165357,127.563948 C813.56802,118.123251 802.940242,108.715038 792.282024,99.3393098 C791.898474,99.0043173 791.514924,98.6754156 791.100934,98.31606 L785.152869,103.541943 C776.069437,111.533036 766.919036,119.45713 757.926925,127.545676 C755.87871,129.410757 753.088992,130.233709 750.356985,129.778768 C747.624978,129.323827 745.25213,127.641191 743.918228,125.21291 C741.531696,121.180819 741.994391,114.822053 746.0795,111.277223 C755.923943,102.750142 765.658801,94.1012457 775.442363,85.5010754 L775.965939,85.0503582 Z M855.719933,85.0503582 L830.216919,62.6606797 L804.610408,85.056449 L830.216919,107.476581 L855.719933,85.0503582 Z M714.597981,107.092863 L713.459508,107.092863 C698.409746,107.092863 683.366073,107.050227 668.316312,107.092863 C662.599594,107.092863 659.184175,102.829322 658.514485,98.5657817 C657.954381,94.8260476 658.891947,91.500486 661.649852,88.8205462 C663.266778,87.2187814 665.462887,86.3399508 667.737943,86.3842373 L714.579716,86.3842373 C714.579716,84.8067273 714.628421,83.3083974 714.579716,81.8039767 C714.530396,79.2719259 714.178854,76.7548394 713.532565,74.3062361 C712.223625,69.7016123 709.069994,66.7719509 704.893563,64.7863592 C701.161564,63.0078537 697.173864,62.1612364 693.107019,61.6435207 C688.5393,61.0844208 683.933438,60.9010829 679.335757,61.0953512 C673.533806,61.3085283 667.768384,61.9054239 662.289102,63.9945588 C659.644954,64.9382382 657.235899,66.4424826 655.226916,68.4042779 C652.840384,70.8405867 651.714087,73.8128836 651.32445,77.0958098 C651.026492,79.4599845 650.863878,81.8392675 650.837402,84.2220132 C650.788697,95.9406589 650.837402,107.659305 650.837402,119.371859 C650.952839,122.382825 649.799885,125.304045 647.659419,127.42386 C643.525605,131.376771 637.437514,130.694605 634.125592,125.968166 C632.854546,124.163354 632.179721,122.005944 632.195667,119.798214 C632.195667,107.54358 632.134786,95.2889463 632.195667,83.0404034 C632.238284,76.2004662 633.297612,69.5188892 636.043341,63.1844861 C640.134538,53.74988 647.227164,47.573837 656.815908,44.1203692 C662.014142,42.3249272 667.418707,41.1952399 672.900644,40.7582629 C677.433584,40.3391591 681.988948,40.2150522 686.537969,40.3867258 C694.172435,40.6608106 701.703404,41.6048803 708.929968,44.2665477 C717.21586,47.3119338 723.693589,52.5134532 727.918724,60.3583678 C730.275443,64.8739569 731.822902,69.7678143 732.490881,74.817861 C732.995594,78.5335457 733.225537,82.2814272 733.178835,86.0309725 L733.178835,119.207409 C733.170302,120.655548 732.938248,122.093681 732.490881,123.470949 C731.307833,127.358486 727.700395,129.996997 723.638796,129.94544 C719.815475,129.823625 717.288917,127.673582 715.639044,124.372383 C714.936306,122.91925 714.585895,121.320838 714.616245,119.706852 L714.616245,108.012569 L714.616245,107.062409 L714.597981,107.092863 Z M522.001218,84.8310904 L522.001218,49.9736012 C522.001218,45.5334283 525.160937,41.2942509 529.246046,40.2649104 C529.843233,40.1147063 530.456703,40.0390116 531.072473,40.0395518 C544.855912,40.0395518 558.633262,39.9238271 572.4167,40.088278 C582.157646,40.2040027 591.77683,41.3490678 601.030729,44.7233556 C609.152242,47.6956524 615.818702,52.5682702 620.451739,59.9929215 C623.280105,64.6464349 625.131957,69.8272723 625.894493,75.2198519 C626.679901,80.2773311 626.827168,85.4134851 626.332835,90.5076901 C625.55356,98.8094126 623.179204,106.532512 617.870389,113.134909 C613.109501,119.055139 606.911825,122.880144 599.81311,125.37127 C594.870215,127.020395 589.769418,128.15123 584.592883,128.745558 C578.379168,129.461584 572.126349,129.783008 565.872002,129.7079 C554.548153,129.7079 543.230391,129.646992 531.906542,129.7079 C526.165472,129.750535 522.810934,125.316453 522.165596,121.34527 C522.068785,120.720544 522.019937,120.089319 522.019482,119.45713 C522.003247,107.921208 521.997159,96.3791945 522.001218,84.8310904 Z M538.201628,111.715759 L539.193987,111.715759 L567.972394,111.715759 C573.714993,111.785746 579.453477,111.378293 585.128635,110.497604 C589.944315,109.693622 594.632145,108.469377 598.991218,106.191428 C604.823609,103.146042 608.561697,98.5353278 609.718435,91.9451123 C610.450095,87.4737322 610.54234,82.9209681 609.992399,78.4235981 C609.310533,72.144012 606.339544,67.4053912 600.860262,64.2381897 C596.105463,61.4973422 590.900145,60.1573723 585.548713,59.2863919 C579.748414,58.4095441 573.886871,58.0021718 568.021099,58.0682375 L539.02352,58.0682375 C538.767821,58.0682375 538.506033,58.0682375 538.219892,58.1047821 L538.219892,111.703577 L538.201628,111.715759 Z" id="Logo"></path>
            </g>
        </g>
    </g>
</svg>